<?xml version="1.0" encoding="utf-8"?>
<!-- Generator: Adobe Illustrator 20.1.0, SVG Export Plug-In . SVG Version: 6.00 Build 0)  -->
<svg version="1.1" id="Layer_1" xmlns="http://www.w3.org/2000/svg" xmlns:xlink="http://www.w3.org/1999/xlink" x="0px" y="0px"
	 viewBox="0 0 960 300.2" style="enable-background:new 0 0 960 300.2;" xml:space="preserve">
<style type="text/css">
	.st0{fill:#FFFFFF;}
</style>
<path class="st0" d="M937.4,86.3c0.3-4.9-0.7-8.5-3.1-11.3c-1.1-1.2-3-1.9-5.2-1.9c-4.5,0-6.4,3.1-7.3,6.6c-0.7,1.9-0.9,4-0.7,6.6
	v64.6c-0.2,4.9,1,8.5,3.1,11c1.2,1.2,2.8,1.9,4.9,1.9c4.5,0,6.6-2.8,7.5-6.3c0.7-1.8,1-4,0.7-6.6L937.4,86.3L937.4,86.3z
	 M959.7,151.6c-0.7,12.5-4.5,21.2-12.7,28c-4.2,3.5-10.1,5.2-17.9,5.2c-15.3,0-22.8-8.5-26.6-16.9c-2.1-4.9-3.5-10.6-3.8-16.9V86.3
	c0.7-12.5,4.5-21.6,12.7-28.6c4-3.6,9.9-5.2,17.6-5.2c15.2,0,23,8.5,26.8,16.7c2.1,4.9,3.5,10.4,3.8,16.5V151.6L959.7,151.6z
	 M882.2,54.3v131.8c0,6.6,0,16.9-3.3,25.4c-3.3,8.7-10.6,15.5-24,15.5c-3.7,0-6.3-0.2-8-0.7c-1-0.2-1.7-0.5-2.4-0.7v-21.9
	c0.7,0.2,1.4,0.2,2.1,0.4c1.6,0.2,3.1,0.5,4.5,0.5c4,0,5.9-3.3,6.8-7.3c0.2-1.9,0.5-4,0.5-6.1v-5.4V54.3L882.2,54.3L882.2,54.3z
	 M858.5,10.1h23.7v23.7h-23.7C858.5,33.8,858.5,10.1,858.5,10.1z M820.4,86.3c0.2-4.9-0.7-8.5-3-11.3c-1.2-1.2-3.1-1.9-5.2-1.9
	c-4.5,0-6.4,3.1-7.3,6.6c-0.7,1.9-1,4-0.7,6.6v64.6c-0.2,4.9,1,8.5,3.1,11c1.2,1.2,2.8,1.9,4.9,1.9c4.5,0,6.6-2.8,7.5-6.3
	c0.7-1.8,1-4,0.7-6.6L820.4,86.3L820.4,86.3z M842.7,151.6c-0.7,12.5-4.5,21.2-12.7,28c-4.2,3.5-10.1,5.2-17.9,5.2
	c-15.3,0-22.8-8.5-26.6-16.9c-2.1-4.9-3.5-10.6-3.8-16.9V86.3c0.7-12.5,4.5-21.6,12.7-28.6c4-3.6,9.9-5.2,17.6-5.2
	c15.3,0,23.1,8.5,26.8,16.7c2.1,4.9,3.5,10.4,3.7,16.5L842.7,151.6L842.7,151.6z M722.1,157.5c8.7,0,13.6-0.9,16.2-9.4
	c1.2-4,2.1-10.1,2.4-18.4c0.3-8.2,0.3-19.3,0.3-33.4c0-14.1,0-25.1-0.3-33.4c-0.2-8-1.2-14.1-2.4-18.3c-2.6-8.2-7.5-9.2-16.2-9.2
	V157.5z M696.7,182.9V10.1h20c23.5,0,36.2,4.7,43,17.8c6.6,13.2,7.5,34.8,7.5,68.7c0,33.8-1,55.2-7.5,68.4
	c-6.8,13.1-19.5,17.9-43,17.9H696.7z M686.3,78.8c-2.1-0.7-4.5-0.9-6.6-0.9c-3.8,0-8.2,0.5-12,4c-4.5,3.8-5.2,7.8-5.2,11.8v89.3
	h-23.7V54.3h23.7v14.3c0.3-1.6,1.9-5.6,5.7-9.4c3.7-3.5,9.4-6.8,18.1-6.8V78.8z M583.8,104.4H601V86.3c0-4.9-0.9-8.5-3.3-11.3
	c-1.2-1.2-3.1-1.9-5.1-1.9c-4.5,0-6.3,3.1-7.5,6.6c-0.7,1.9-1,4-1.2,6.6V104.4z M623.1,136.8v14.8c-0.7,12.5-4.5,21.2-12.9,28
	c-4.2,3.5-10.1,5.2-17.9,5.2c-15.2,0-23-8.5-26.8-16.9c-2.1-4.9-3.5-10.6-3.7-16.9V86.3c0.7-12.5,4.7-21.6,13.2-28.6
	c4-3.6,9.9-5.2,17.7-5.2c15.2,0,23,8.5,26.8,16.7c2.1,4.9,3.5,10.4,3.8,16.5v37.4h-39.3v28c0.2,4.9,1.6,8.5,3.8,11
	c1.1,1.2,2.8,1.9,5,1.9c4.4,0,6.6-2.8,7.5-6.3c0.7-1.8,0.9-4,0.9-6.6v-14.1L623.1,136.8L623.1,136.8z M520.8,82.5
	c0-3.8-3.5-7.8-7.1-7.8c-3.5,0-6.3,3.3-6.3,7.8v72.1c0,4.5,2.8,7.8,6.3,7.8c3.5,0,7.1-3.3,7.1-7.8V82.5z M544.6,182.9h-23.7v-8.5
	c-4,3.8-7.5,6.6-12,8.7c-2.3,1.1-4.7,1.6-6.8,1.6c-6.6,0-11.1-3.8-13.9-8.7c-3.1-4.7-4.5-11-4.5-16.5v-82c0-5.4,1.4-11.8,4.5-16.7
	c2.8-4.7,7.2-8.5,13.9-8.5c4.5,0,9.2,2.6,12.7,5.2c2.1,1.6,4,3.3,6.1,5.1V10.1h23.7V182.9L544.6,182.9z M445.8,86.3
	c0.2-4.9-0.7-8.5-3.1-11.3c-1.2-1.2-3.1-1.9-5.2-1.9c-4.5,0-6.3,3.1-7.3,6.6c-0.7,1.9-0.9,4-0.7,6.6v64.6c-0.2,4.9,0.9,8.5,3.1,11
	c1.2,1.2,2.8,1.9,4.9,1.9c4.5,0,6.6-2.8,7.5-6.3c0.7-1.8,0.9-4,0.7-6.6V86.3z M468.1,151.6c-0.7,12.5-4.5,21.2-12.7,28
	c-4.2,3.5-10.1,5.2-17.9,5.2c-15.3,0-22.8-8.5-26.5-16.9c-2.1-4.9-3.5-10.6-3.8-16.9V86.3c0.7-12.5,4.4-21.6,12.7-28.6
	c4-3.6,9.9-5.2,17.6-5.2c15.3,0,23,8.5,26.8,16.7c2.1,4.9,3.5,10.4,3.8,16.5V151.6L468.1,151.6z M394.1,123.6v23.7
	c-0.2,7.1-1.7,13.4-4.2,18.8c-2.1,4.7-5.4,9.2-10.1,12.7c-4.7,3.7-11,5.9-19.5,5.9c-8.5,0-15.1-2.1-19.7-5.9
	c-4.7-3.5-7.8-8-9.9-12.7c-2.6-5.4-4-11.7-4.2-18.8V45.6c0.3-6.8,1.7-13.2,4.2-18.6c2.1-4.7,5.2-9.4,9.9-12.9
	c4.7-3.5,11.3-5.9,19.7-5.9c8.4,0,14.8,2.4,19.5,5.9c4.7,3.5,8,8.2,10.1,12.9c2.6,5.4,4,11.8,4.2,18.6v23.7h-23.8V45.6
	c0-4.7-1.2-8-3.7-10.8c-1.2-1.2-3.3-1.9-5.9-1.9c-4.4,0-6.6,3.3-7.7,6.3c-0.7,1.9-0.9,4-1.2,6.4v101.8c0.3,4.9,1.7,8.2,4,10.8
	c1.2,1.2,2.8,1.9,4.9,1.9c5.4,0,7.5-2.8,8.7-6.3c0.7-1.7,0.9-3.8,0.9-6.3v-23.7L394.1,123.6L394.1,123.6z"/>
<path class="st0" d="M158.9,39.5h-26.5v51.3h26.5V39.5z M123.7,91.2v-52c0-2.3,0.9-4.2,2.5-5.9c1.6-1.7,3.6-2.5,5.9-2.5h27.1
	c2.3,0,4.2,0.8,5.8,2.5c1.7,1.7,2.5,3.6,2.5,5.9v52c0,2.3-0.8,4.3-2.5,5.9c-1.6,1.7-3.6,2.5-5.9,2.5h-27c-2.3,0-4.4-0.8-6-2.5
	C124.5,95.5,123.7,93.5,123.7,91.2"/>
<path class="st0" d="M147.2,0c81.3,0,147.3,65.9,147.3,147.2c0,81.3-65.9,147.2-147.3,147.2C65.9,294.5,0,228.6,0,147.2
	C0,65.9,65.9,0,147.2,0z M145.8,7.6c-0.7,0-1.4,0-2.1,0C67.6,8.7,6.1,70.9,6.1,147.3c0,76.5,61.6,138.6,137.8,139.6
	c-37.7-0.9-68-31.8-68-69.8c0-38.5,31.3-69.8,69.8-69.8c38.5,0,69.8-31.3,69.8-69.8C215.6,38.9,184.3,7.6,145.8,7.6z M168.7,257.2
	c1.2,0,2.3-0.4,3.1-1.3c0.8-0.9,1.3-1.9,1.3-3.1v-22.5c0-1.2-0.4-2.2-1.3-3.1c-0.9-0.9-1.9-1.3-3.1-1.3c-1.2,0-2.2,0.4-3.1,1.3
	c-0.9,0.8-1.3,1.9-1.3,3v18.1h-8.7v-60h-21.8c-1.2,0-2.2,0.4-3.1,1.3c-0.9,0.8-1.3,1.9-1.3,3.1c0,1.2,0.4,2.2,1.3,3.1
	c0.9,0.8,1.9,1.3,3.1,1.3H147v51.3h-13.3c-1.2,0-2.2,0.4-3.1,1.2c-0.9,0.8-1.2,1.8-1.2,3c0,1.2,0.4,2.3,1.2,3.2
	c0.9,0.9,1.9,1.3,3.1,1.3L168.7,257.2L168.7,257.2z"/>
<path class="st0" d="M397.2,298.5v-81.5h32.3c8.1,0,14.1,2,18.1,6s5.9,8.6,5.9,13.8c0,9.2-4.8,15.4-14.5,18.4
	c5.7,1.5,10,4.1,12.8,7.9c2.8,3.8,4.2,8.1,4.2,12.9c0,6.4-2.2,11.8-6.5,16.1c-4.3,4.3-11,6.5-20,6.5H397.2z M407.1,251.9h17.7
	c7.4,0,12.3-1.4,14.8-4.2c2.5-2.8,3.7-6.1,3.7-9.9c0-3.7-1.3-6.8-4-9.1c-2.6-2.3-6.6-3.5-11.9-3.5h-20.4V251.9z M407.1,289.5h21.9
	c5.3,0,9.5-1.3,12.4-3.9c2.9-2.6,4.4-6,4.4-10.1c0-2.9-0.7-5.6-2-8.1c-1.3-2.5-3.2-4.4-5.6-5.8c-2.4-1.4-6-2-10.7-2h-20.4V289.5z
	 M479.7,298.5h-9.4v-60.3h8.2v14.1c2.9-6.7,5.8-11,8.8-12.9c2.9-2,5.9-3,9-3c1,0,2.2,0.1,3.7,0.2v9h-1.9c-5.2,0-9.5,1.9-12.9,5.8
	c-3.4,3.9-5.3,8.9-5.5,15.2V298.5z M557.9,298.5h-9.3c-0.4-1.9-0.7-5.5-1.1-10.9c-4.1,8.4-11.2,12.5-21.1,12.5
	c-6.8,0-12-1.8-15.6-5.4c-3.6-3.6-5.4-7.9-5.4-12.9c0-6.1,2.6-11.1,7.8-15c5.2-3.9,14-5.9,26.4-5.9c1.7,0,4.3,0.1,8,0.2
	c0-4.8-0.4-8.2-1.1-10.4c-0.7-2.1-2.3-3.8-4.7-5.1c-2.4-1.3-5.5-1.9-9.4-1.9c-9.5,0-15.1,3.6-16.6,10.9l-8.7-1.5
	c2.1-11.1,11-16.7,26.6-16.7c8.3,0,14.2,1.8,17.7,5.5c3.5,3.7,5.2,10.1,5.2,19.1v25.6C556.6,291,557,294.9,557.9,298.5z
	 M547.5,268.3c-3.8-0.2-6.7-0.4-8.7-0.4c-7.4,0-13.2,1.2-17.3,3.7c-4.1,2.4-6.2,6-6.2,10.7c0,3,1.1,5.5,3.3,7.5
	c2.2,2.1,5.4,3.1,9.6,3.1c5.7,0,10.3-2.1,14-6.2c3.6-4.1,5.5-8.9,5.5-14.5C547.7,271.2,547.6,269.8,547.5,268.3z M622.5,216.9v81.5
	H614v-10.3c-4.2,8-10.6,12-19.1,12c-7.1,0-12.9-3-17.4-8.9c-4.5-5.9-6.8-13.4-6.8-22.5c0-9.2,2.2-17,6.8-23.1
	c4.5-6.2,10.5-9.2,17.9-9.2c7.2,0,13.2,3.3,17.7,9.9v-29.5H622.5z M613.1,261.4c0-5.3-1.6-9.5-4.8-12.7c-3.2-3.2-7-4.8-11.3-4.8
	c-4.7,0-8.5,2.1-11.5,6.2c-3,4.1-4.5,10-4.5,17.4c0,8.1,1.4,14.2,4.2,18.5c2.8,4.2,6.6,6.3,11.4,6.3c4.4,0,8.2-1.8,11.6-5.5
	c3.3-3.7,5-8,5-12.9V261.4z M666.3,238.2v7.3H652v53h-9.4v-53h-10.3v-7.3h10.3c0.2-9.7,2-15.9,5.6-18.7c3.6-2.8,7.9-4.2,13.1-4.2
	c2.5,0,5.4,0.3,8.6,0.8v7.5c-2-0.5-4-0.8-5.8-0.8c-4.1,0-7.1,0.9-9.1,2.7s-3,5.2-3,10.2v2.4H666.3z M696.8,300.2
	c-8.3,0-14.7-3.1-19.4-9.2c-4.6-6.1-7-13.8-7-22.8c0-9.6,2.6-17.3,7.8-23c5.2-5.7,11.7-8.6,19.5-8.6c8.3,0,14.9,3,19.7,9.1
	c4.8,6,7.2,13.6,7.2,22.6c0,9.4-2.6,17.1-7.8,23.1C711.7,297.2,705,300.2,696.8,300.2z M697.5,292.4c4.8,0,8.8-2,12-5.9
	c3.2-3.9,4.8-10.1,4.8-18.4c0-8.4-1.7-14.4-5.1-18.2c-3.4-3.8-7.3-5.6-11.9-5.6c-4.7,0-8.6,1.9-11.8,5.7c-3.2,3.8-4.8,9.8-4.8,18.1
	c0,8.7,1.6,15,4.8,18.7S692.7,292.4,697.5,292.4z M748.1,298.5h-9.4v-60.3h8.2v14.1c2.9-6.7,5.8-11,8.8-12.9c2.9-2,5.9-3,9-3
	c1,0,2.2,0.1,3.7,0.2v9h-1.9c-5.2,0-9.5,1.9-12.9,5.8c-3.4,3.9-5.3,8.9-5.5,15.2V298.5z M824.2,216.9v81.5h-8.5v-10.3
	c-4.2,8-10.6,12-19.1,12c-7.1,0-12.9-3-17.4-8.9c-4.5-5.9-6.8-13.4-6.8-22.5c0-9.2,2.2-17,6.8-23.1c4.5-6.2,10.5-9.2,17.9-9.2
	c7.2,0,13.2,3.3,17.7,9.9v-29.5H824.2z M814.8,261.4c0-5.3-1.6-9.5-4.8-12.7c-3.2-3.2-7-4.8-11.3-4.8c-4.7,0-8.5,2.1-11.5,6.2
	c-3,4.1-4.5,10-4.5,17.4c0,8.1,1.4,14.2,4.2,18.5c2.8,4.2,6.6,6.3,11.4,6.3c4.4,0,8.2-1.8,11.6-5.5c3.3-3.7,5-8,5-12.9V261.4z"/>
</svg>
