<?xml version="1.0" encoding="UTF-8" standalone="no"?>
<!-- Generator: Adobe Illustrator 20.1.0, SVG Export Plug-In . SVG Version: 6.00 Build 0)  -->

<svg
   xmlns:dc="http://purl.org/dc/elements/1.1/"
   xmlns:cc="http://creativecommons.org/ns#"
   xmlns:rdf="http://www.w3.org/1999/02/22-rdf-syntax-ns#"
   xmlns:svg="http://www.w3.org/2000/svg"
   xmlns="http://www.w3.org/2000/svg"
   xmlns:sodipodi="http://sodipodi.sourceforge.net/DTD/sodipodi-0.dtd"
   xmlns:inkscape="http://www.inkscape.org/namespaces/inkscape"
   version="1.1"
   id="Layer_1"
   x="0px"
   y="0px"
   viewBox="0 0 640 639.99998"
   xml:space="preserve"
   inkscape:version="0.91 r"
   sodipodi:docname="logo_640x640.svg"
   width="640"
   height="640"><metadata
     id="metadata17"><rdf:RDF><cc:Work
         rdf:about=""><dc:format>image/svg+xml</dc:format><dc:type
           rdf:resource="http://purl.org/dc/dcmitype/StillImage" /><dc:title /></cc:Work></rdf:RDF></metadata><defs
     id="defs15" /><sodipodi:namedview
     pagecolor="#ffffff"
     bordercolor="#666666"
     borderopacity="1"
     objecttolerance="10"
     gridtolerance="10"
     guidetolerance="10"
     inkscape:pageopacity="0"
     inkscape:pageshadow="2"
     inkscape:window-width="1895"
     inkscape:window-height="1080"
     id="namedview13"
     showgrid="false"
     borderlayer="true"
     inkscape:showpageshadow="false"
     inkscape:zoom="0.75390625"
     inkscape:cx="601.6701"
     inkscape:cy="88.303622"
     inkscape:window-x="25"
     inkscape:window-y="0"
     inkscape:window-maximized="1"
     inkscape:current-layer="layer4"
     fit-margin-top="0"
     fit-margin-left="0"
     fit-margin-right="0"
     fit-margin-bottom="0" /><style
     type="text/css"
     id="style3">
	.st0{fill:#FFFFFF;}
</style><g
     inkscape:groupmode="layer"
     id="layer1"
     inkscape:label="back"
     transform="translate(-614.94934,-670.83881)"
     style="display:none"><rect
       style="opacity:1;fill:#ff00ff;fill-opacity:1;stroke:none;stroke-width:1;stroke-linecap:round;stroke-linejoin:round;stroke-miterlimit:4;stroke-dasharray:none;stroke-dashoffset:0;stroke-opacity:1"
       id="rect5470"
       width="640"
       height="640"
       x="614.94934"
       y="670.83881" /></g><g
     inkscape:groupmode="layer"
     id="layer2"
     inkscape:label="logo"
     transform="translate(-614.94934,-670.83881)"
     style="display:inline"><path
       inkscape:export-ydpi="94.75"
       inkscape:export-xdpi="94.75"
       sodipodi:nodetypes="sscss"
       style="fill:#ffffff;stroke:none;stroke-width:8.09295368;stroke-linecap:round;stroke-linejoin:round;stroke-miterlimit:4;stroke-dasharray:none"
       inkscape:connector-curvature="0"
       class="st0"
       d="m 934.8462,686.98485 c 167.8215,0 304.0601,136.03234 304.0601,303.85394 0,167.82161 -136.0322,303.85381 -304.0601,303.85381 -167.82144,0.2062 -303.8538,-135.826 -303.8538,-303.85381 0,-167.8216 136.03234,-303.85394 303.85378,-303.85394 z"
       id="path5472"
       inkscape:export-filename="/home/shi/sync/shi/copy/2016/bdcoderdojo/logo_640x640.png" /><path
       inkscape:export-ydpi="94.75"
       inkscape:export-xdpi="94.75"
       sodipodi:nodetypes="sscss"
       style="fill:#000000;stroke:none;stroke-width:5;stroke-linecap:round;stroke-linejoin:round;stroke-miterlimit:4;stroke-dasharray:none"
       inkscape:connector-curvature="0"
       class="st0"
       d="m 934.84938,696.43859 c 162.59992,0 294.59992,131.8002 294.59992,294.4002 0,162.60001 -131.8,294.40001 -294.59992,294.40001 -162.6,0.2 -294.4,-131.6 -294.4,-294.40001 0,-162.6 131.8,-294.4002 294.4,-294.4002 z"
       id="path5456"
       inkscape:export-filename="/home/shi/sync/shi/copy/2016/bdcoderdojo/logo_640x640.png" /><path
       id="path5458"
       d="m 934.84938,696.43859 c 162.59992,0 294.59992,131.8002 294.59992,294.4002 0,162.60001 -131.8,294.40001 -294.59992,294.40001 -162.6,0.2 -294.4,-131.6 -294.4,-294.40001 0,-162.6 131.8,-294.4002 294.4,-294.4002 z m -2.8,15.2 -4.2,0 c -152.2,2.2 -275.2,126.6002 -275.2,279.4002 0,153.00001 123.2,277.20001 275.6,279.20001 -75.4,-1.8 -136,-63.6 -136,-139.6 0,-77 62.6,-139.60001 139.6,-139.60001 77.00002,0 139.59992,-62.6 139.59992,-139.6 0.2,-77.2 -62.3999,-139.8002 -139.39992,-139.8002 z"
       class="st0"
       inkscape:connector-curvature="0"
       style="fill:#ffffff"
       sodipodi:nodetypes="sscssscscsscs"
       inkscape:export-xdpi="94.75"
       inkscape:export-ydpi="94.75"
       inkscape:export-filename="/home/shi/sync/shi/copy/2016/bdcoderdojo/logo_640x640.png" /></g><g
     inkscape:groupmode="layer"
     id="layer3"
     inkscape:label="outline"
     transform="translate(-352,320.00001)"><path
       id="path5468"
       d="m 671.9029,-285.94361 c 157.92926,0 286.13766,128.0142 286.13766,285.943597695312 C 958.04056,157.92939 830.02656,285.94339 671.9029,285.94339 513.97358,286.13739 385.95954,158.12359 385.95954,-1.2304688e-5 385.95954,-157.92941 513.97358,-285.94361 671.9029,-285.94361 Z"
       class="st0"
       inkscape:connector-curvature="0"
       style="fill:none;stroke:#000000;stroke-width:16.18590736;stroke-linecap:round;stroke-linejoin:round;stroke-miterlimit:4;stroke-dasharray:none"
       sodipodi:nodetypes="sscss"
       inkscape:export-xdpi="94.75"
       inkscape:export-ydpi="94.75"
       inkscape:export-filename="/home/shi/sync/shi/copy/2016/bdcoderdojo/logo_640x640.png" /></g><g
     inkscape:groupmode="layer"
     id="layer4"
     inkscape:label="text"
     transform="translate(-352,320.00001)"><g
       transform="scale(0.96363604,1.0377362)"
       style="font-style:normal;font-weight:normal;font-size:191.69645691px;line-height:125%;font-family:sans-serif;letter-spacing:0px;word-spacing:0px;fill:#ffffff;fill-opacity:1;stroke:none;stroke-width:1px;stroke-linecap:butt;stroke-linejoin:miter;stroke-opacity:1"
       id="text5460"
       inkscape:export-filename="/home/shi/sync/shi/copy/2016/bdcoderdojo/logo_640x640.png"
       inkscape:export-xdpi="94.75"
       inkscape:export-ydpi="94.75"><path
         d="m 650.47938,-79.378986 0,-125.125004 q 0,-3.6575 3.2725,-5.775 3.2725,-2.1175 7.7,-2.1175 l 37.1525,0 q 38.6925,0 38.6925,33.88 0,23.485 -16.3625,30.6075 9.8175,3.85 14.8225,10.9725 5.005,6.93 5.005,20.405 l 0,4.0425 q 0,21.367504 -10.395,31.185004 -10.395,9.625 -28.105,9.625 l -40.81,0 q -4.8125,0 -7.8925,-2.31 -3.08,-2.31 -3.08,-5.39 z m 24.8325,-14.245 21.7525,0 q 18.6725,0 18.6725,-20.982504 l 0,-3.08 q 0,-10.78 -4.8125,-15.5925 -4.62,-4.8125 -13.86,-4.8125 l -21.7525,0 0,44.467504 z m 0,-64.102504 21.56,0 q 7.5075,0 11.3575,-4.4275 4.0425,-4.4275 4.0425,-12.1275 0,-7.5075 -4.235,-11.7425 -4.0425,-4.4275 -11.3575,-4.4275 l -21.3675,0 0,32.725 z"
         style="font-style:normal;font-variant:normal;font-weight:bold;font-stretch:normal;font-size:192.5px;font-family:Dosis;-inkscape-font-specification:'Dosis Bold'"
         id="path5666" /></g><g
       transform="scale(0.96363604,1.0377362)"
       style="font-style:normal;font-weight:normal;font-size:191.69645691px;line-height:125%;font-family:sans-serif;letter-spacing:0px;word-spacing:0px;fill:#000000;fill-opacity:1;stroke:none;stroke-width:1px;stroke-linecap:butt;stroke-linejoin:miter;stroke-opacity:1"
       id="text5464"
       inkscape:export-filename="/home/shi/sync/shi/copy/2016/bdcoderdojo/logo_640x640.png"
       inkscape:export-xdpi="94.75"
       inkscape:export-ydpi="94.75"><path
         d="m 642.97194,201.0225 0,-125.317496 q 0,-3.08 3.08,-5.39 3.08,-2.31 7.8925,-2.31 l 34.0725,0 q 20.5975,0 32.9175,10.5875 12.32,10.5875 12.32,33.494996 l 0,52.5525 q 0,22.9075 -12.32,33.495 -12.32,10.5875 -32.9175,10.5875 l -34.0725,0 q -4.8125,0 -7.8925,-2.31 -3.08,-2.31 -3.08,-5.39 z m 25.025,-14.245 20.02,0 q 20.2125,0 20.2125,-22.1375 l 0,-52.5525 q 0,-22.137496 -20.2125,-22.137496 l -20.02,0 0,96.827496 z"
         style="font-style:normal;font-variant:normal;font-weight:bold;font-stretch:normal;font-size:192.5px;font-family:Dosis;-inkscape-font-specification:'Dosis Bold';fill:#000000"
         id="path5663" /></g></g></svg>